<svg width="161" height="84" viewBox="0 0 161 84" fill="none" xmlns="http://www.w3.org/2000/svg">
<path d="M69.9283 26.2018C71.5447 26.2018 73.0356 26.6059 74.4011 27.414C75.7667 28.2222 76.8535 29.309 77.6617 30.6746C78.4699 32.0401 78.8739 33.5171 78.8739 35.1056C78.8739 36.694 78.4699 38.171 77.6617 39.5366C76.8535 40.9021 75.7667 41.9889 74.4011 42.7971C73.0356 43.5774 71.5447 43.9676 69.9283 43.9676H65.0375V54H62.1532V26.2018H69.9283ZM69.9283 41.1668C71.0152 41.1668 72.0184 40.9021 72.9381 40.3726C73.8856 39.8152 74.6241 39.0767 75.1536 38.1571C75.7109 37.2096 75.9896 36.1924 75.9896 35.1056C75.9896 34.0187 75.7109 33.0155 75.1536 32.0958C74.6241 31.1762 73.8856 30.4516 72.9381 29.9221C72.0184 29.3648 71.0152 29.0861 69.9283 29.0861H65.0375V41.1668H69.9283ZM101.664 33.6425V54H98.7798V50.1542C96.8569 52.8574 94.2931 54.209 91.0882 54.209C89.1654 54.209 87.3958 53.7492 85.7794 52.8295C84.1631 51.882 82.8812 50.6001 81.9336 48.9838C81.014 47.3674 80.5542 45.6118 80.5542 43.7167C80.5542 41.7939 81.014 40.0242 81.9336 38.4079C82.8812 36.7916 84.1631 35.5236 85.7794 34.6039C87.3958 33.6564 89.1654 33.1827 91.0882 33.1827C93.0669 33.1827 94.6832 33.6007 95.9373 34.4367C97.2192 35.2449 98.1667 36.1227 98.7798 37.0702V33.6425H101.664ZM91.0882 51.3665C92.4816 51.3665 93.7636 51.0321 94.934 50.3632C96.1045 49.6665 97.0241 48.733 97.6929 47.5625C98.3896 46.3921 98.738 45.1101 98.738 43.7167C98.738 42.3233 98.3896 41.0414 97.6929 39.871C97.0241 38.6727 96.1045 37.7391 94.934 37.0702C93.7636 36.3736 92.4816 36.0252 91.0882 36.0252C89.6949 36.0252 88.399 36.3736 87.2007 37.0702C86.0302 37.7391 85.0966 38.6727 84.4 39.871C83.7311 41.0414 83.3967 42.3233 83.3967 43.7167C83.3967 45.1101 83.7311 46.3921 84.4 47.5625C85.0966 48.733 86.0302 49.6665 87.2007 50.3632C88.399 51.0321 89.6949 51.3665 91.0882 51.3665ZM105.833 62.9038V33.6425H108.675V37.1121C109.651 35.7465 110.793 34.7293 112.103 34.0605C113.413 33.3638 114.848 33.0155 116.409 33.0155C118.304 33.0155 120.059 33.4892 121.676 34.4367C123.292 35.3842 124.574 36.6662 125.522 38.2825C126.469 39.8988 126.943 41.6545 126.943 43.5495C126.943 45.4446 126.469 47.2002 125.522 48.8166C124.574 50.4329 123.292 51.7148 121.676 52.6623C120.059 53.6098 118.304 54.0836 116.409 54.0836C114.43 54.0836 112.8 53.6795 111.518 52.8714C110.236 52.0353 109.288 51.1435 108.675 50.196V62.9038H105.833ZM116.409 35.8998C115.015 35.8998 113.733 36.2481 112.563 36.9448C111.393 37.6137 110.459 38.5333 109.762 39.7038C109.066 40.8742 108.717 42.1561 108.717 43.5495C108.717 44.9429 109.066 46.2249 109.762 47.3953C110.459 48.5658 111.393 49.4993 112.563 50.196C113.733 50.8927 115.015 51.2411 116.409 51.2411C117.802 51.2411 119.084 50.8927 120.255 50.196C121.425 49.4993 122.345 48.5658 123.013 47.3953C123.71 46.2249 124.058 44.9429 124.058 43.5495C124.058 42.1561 123.71 40.8742 123.013 39.7038C122.345 38.5333 121.425 37.6137 120.255 36.9448C119.084 36.2481 117.802 35.8998 116.409 35.8998ZM133.536 26.2018V54H130.694V26.2018H133.536ZM140.307 45.0962C140.641 46.8798 141.519 48.3707 142.94 49.569C144.361 50.7395 145.992 51.3247 147.831 51.3247C149.197 51.3247 150.451 51.0042 151.593 50.3632C152.736 49.7223 153.655 48.8444 154.352 47.7297L156.818 49.151C155.871 50.6837 154.603 51.9099 153.014 52.8295C151.426 53.7492 149.698 54.209 147.831 54.209C145.936 54.209 144.18 53.7353 142.564 52.7877C140.948 51.8402 139.666 50.5583 138.718 48.942C137.771 47.3256 137.297 45.57 137.297 43.6749C137.297 41.7521 137.771 39.9964 138.718 38.4079C139.666 36.7916 140.948 35.5096 142.564 34.5621C144.18 33.6146 145.936 33.1409 147.831 33.1409C149.726 33.1409 151.482 33.6146 153.098 34.5621C154.714 35.5096 155.996 36.7916 156.944 38.4079C157.891 39.9964 158.365 41.7521 158.365 43.6749C158.365 44.0094 158.337 44.4831 158.281 45.0962H140.307ZM147.831 35.9834C146.605 35.9834 145.406 36.276 144.236 36.8612C143.066 37.4186 142.118 38.1989 141.394 39.2021C140.669 40.1775 140.307 41.2365 140.307 42.3791H155.355C155.355 41.2365 154.993 40.1775 154.268 39.2021C153.544 38.1989 152.596 37.4186 151.426 36.8612C150.283 36.276 149.085 35.9834 147.831 35.9834ZM151.217 25.3239L149.336 31.0508H146.744L148.374 25.3239H151.217Z" fill="black"/>
<path d="M19.7305 10.4035C22.9631 10.4035 25.945 11.2117 28.6761 12.828C31.4071 14.4444 33.5808 16.6181 35.1972 19.3491C36.8135 22.0802 37.6217 25.0342 37.6217 28.2111C37.6217 31.3881 36.8135 34.3421 35.1972 37.0731C33.5808 39.8042 31.4071 41.9779 28.6761 43.5942C25.945 45.1548 22.9631 45.9351 19.7305 45.9351H9.94884V66H4.18018V10.4035H19.7305ZM19.7305 40.3337C21.9042 40.3337 23.9107 39.8042 25.7499 38.7452C27.645 37.6305 29.122 36.1535 30.1809 34.3142C31.2957 32.4192 31.853 30.3848 31.853 28.2111C31.853 26.0374 31.2957 24.0309 30.1809 22.1917C29.122 20.3524 27.645 18.9032 25.7499 17.8443C23.9107 16.7296 21.9042 16.1722 19.7305 16.1722H9.94884V40.3337H19.7305ZM27.2744 10.4035C30.5071 10.4035 33.4889 11.2117 36.22 12.828C38.9511 14.4444 41.1248 16.6181 42.7411 19.3491C44.3574 22.0802 45.1656 25.0342 45.1656 28.2111C45.1656 31.3881 44.3574 34.3421 42.7411 37.0731C41.1248 39.8042 38.9511 41.9779 36.22 43.5942C33.4889 45.1548 30.5071 45.9351 27.2744 45.9351H17.4928V66H11.7241V10.4035H27.2744ZM27.2744 40.3337C29.4481 40.3337 31.4546 39.8042 33.2939 38.7452C35.1889 37.6305 36.6659 36.1535 37.7249 34.3142C38.8396 32.4192 39.3969 30.3848 39.3969 28.2111C39.3969 26.0374 38.8396 24.0309 37.7249 22.1917C36.6659 20.3524 35.1889 18.9032 33.2939 17.8443C31.4546 16.7296 29.4481 16.1722 27.2744 16.1722H17.4928V40.3337H27.2744ZM43.1787 60.3149V66H19.268V10.4035H25.0367V60.3149H43.1787Z" fill="black"/>
</svg>
