<svg width="123" height="64" viewBox="0 0 123 64" fill="none" xmlns="http://www.w3.org/2000/svg">
<path d="M53.552 19.72C54.7893 19.72 55.9307 20.0293 56.976 20.648C58.0213 21.2667 58.8533 22.0987 59.472 23.144C60.0907 24.1893 60.4 25.32 60.4 26.536C60.4 27.752 60.0907 28.8827 59.472 29.928C58.8533 30.9733 58.0213 31.8053 56.976 32.424C55.9307 33.0213 54.7893 33.32 53.552 33.32H49.808V41H47.6V19.72H53.552ZM53.552 31.176C54.384 31.176 55.152 30.9733 55.856 30.568C56.5813 30.1413 57.1467 29.576 57.552 28.872C57.9787 28.1467 58.192 27.368 58.192 26.536C58.192 25.704 57.9787 24.936 57.552 24.232C57.1467 23.528 56.5813 22.9733 55.856 22.568C55.152 22.1413 54.384 21.928 53.552 21.928H49.808V31.176H53.552ZM77.8463 25.416V41H75.6383V38.056C74.1663 40.1253 72.2036 41.16 69.7503 41.16C68.2783 41.16 66.9236 40.808 65.6863 40.104C64.4489 39.3787 63.4676 38.3973 62.7423 37.16C62.0383 35.9227 61.6863 34.5787 61.6863 33.128C61.6863 31.656 62.0383 30.3013 62.7423 29.064C63.4676 27.8267 64.4489 26.856 65.6863 26.152C66.9236 25.4267 68.2783 25.064 69.7503 25.064C71.2649 25.064 72.5023 25.384 73.4623 26.024C74.4436 26.6427 75.1689 27.3147 75.6383 28.04V25.416H77.8463ZM69.7503 38.984C70.8169 38.984 71.7983 38.728 72.6943 38.216C73.5903 37.6827 74.2943 36.968 74.8063 36.072C75.3396 35.176 75.6063 34.1947 75.6063 33.128C75.6063 32.0613 75.3396 31.08 74.8063 30.184C74.2943 29.2667 73.5903 28.552 72.6943 28.04C71.7983 27.5067 70.8169 27.24 69.7503 27.24C68.6836 27.24 67.6916 27.5067 66.7743 28.04C65.8783 28.552 65.1636 29.2667 64.6302 30.184C64.1183 31.08 63.8623 32.0613 63.8623 33.128C63.8623 34.1947 64.1183 35.176 64.6302 36.072C65.1636 36.968 65.8783 37.6827 66.7743 38.216C67.6916 38.728 68.6836 38.984 69.7503 38.984ZM81.0375 47.816V25.416H83.2135V28.072C83.9602 27.0267 84.8348 26.248 85.8375 25.736C86.8402 25.2027 87.9388 24.936 89.1335 24.936C90.5842 24.936 91.9282 25.2987 93.1655 26.024C94.4028 26.7493 95.3842 27.7307 96.1095 28.968C96.8348 30.2053 97.1975 31.5493 97.1975 33C97.1975 34.4507 96.8348 35.7947 96.1095 37.032C95.3842 38.2693 94.4028 39.2507 93.1655 39.976C91.9282 40.7013 90.5842 41.064 89.1335 41.064C87.6188 41.064 86.3708 40.7547 85.3895 40.136C84.4082 39.496 83.6828 38.8133 83.2135 38.088V47.816H81.0375ZM89.1335 27.144C88.0668 27.144 87.0855 27.4107 86.1895 27.944C85.2935 28.456 84.5788 29.16 84.0455 30.056C83.5122 30.952 83.2455 31.9333 83.2455 33C83.2455 34.0667 83.5122 35.048 84.0455 35.944C84.5788 36.84 85.2935 37.5547 86.1895 38.088C87.0855 38.6213 88.0668 38.888 89.1335 38.888C90.2002 38.888 91.1815 38.6213 92.0775 38.088C92.9735 37.5547 93.6775 36.84 94.1895 35.944C94.7228 35.048 94.9895 34.0667 94.9895 33C94.9895 31.9333 94.7228 30.952 94.1895 30.056C93.6775 29.16 92.9735 28.456 92.0775 27.944C91.1815 27.4107 90.2002 27.144 89.1335 27.144ZM102.245 19.72V41H100.069V19.72H102.245ZM107.428 34.184C107.684 35.5493 108.356 36.6907 109.444 37.608C110.532 38.504 111.78 38.952 113.188 38.952C114.233 38.952 115.193 38.7067 116.068 38.216C116.942 37.7253 117.646 37.0533 118.18 36.2L120.068 37.288C119.342 38.4613 118.372 39.4 117.156 40.104C115.94 40.808 114.617 41.16 113.188 41.16C111.737 41.16 110.393 40.7973 109.156 40.072C107.918 39.3467 106.937 38.3653 106.212 37.128C105.486 35.8907 105.124 34.5467 105.124 33.096C105.124 31.624 105.486 30.28 106.212 29.064C106.937 27.8267 107.918 26.8453 109.156 26.12C110.393 25.3947 111.737 25.032 113.188 25.032C114.638 25.032 115.982 25.3947 117.22 26.12C118.457 26.8453 119.438 27.8267 120.164 29.064C120.889 30.28 121.252 31.624 121.252 33.096C121.252 33.352 121.23 33.7147 121.188 34.184H107.428ZM113.188 27.208C112.249 27.208 111.332 27.432 110.436 27.88C109.54 28.3067 108.814 28.904 108.26 29.672C107.705 30.4187 107.428 31.2293 107.428 32.104H118.948C118.948 31.2293 118.67 30.4187 118.116 29.672C117.561 28.904 116.836 28.3067 115.94 27.88C115.065 27.432 114.148 27.208 113.188 27.208ZM115.78 19.048L114.34 23.432H112.356L113.604 19.048H115.78Z" fill="white"/>
<path d="M15.104 8.44C17.5787 8.44 19.8613 9.05866 21.952 10.296C24.0427 11.5333 25.7067 13.1973 26.944 15.288C28.1813 17.3787 28.8 19.64 28.8 22.072C28.8 24.504 28.1813 26.7653 26.944 28.856C25.7067 30.9467 24.0427 32.6107 21.952 33.848C19.8613 35.0427 17.5787 35.64 15.104 35.64H7.616V51H3.2V8.44H15.104ZM15.104 31.352C16.768 31.352 18.304 30.9467 19.712 30.136C21.1627 29.2827 22.2933 28.152 23.104 26.744C23.9573 25.2933 24.384 23.736 24.384 22.072C24.384 20.408 23.9573 18.872 23.104 17.464C22.2933 16.056 21.1627 14.9467 19.712 14.136C18.304 13.2827 16.768 12.856 15.104 12.856H7.616V31.352H15.104ZM20.879 8.44C23.3537 8.44 25.6363 9.05866 27.727 10.296C29.8177 11.5333 31.4817 13.1973 32.719 15.288C33.9563 17.3787 34.575 19.64 34.575 22.072C34.575 24.504 33.9563 26.7653 32.719 28.856C31.4817 30.9467 29.8177 32.6107 27.727 33.848C25.6363 35.0427 23.3537 35.64 20.879 35.64H13.391V51H8.975V8.44H20.879ZM20.879 31.352C22.543 31.352 24.079 30.9467 25.487 30.136C26.9377 29.2827 28.0683 28.152 28.879 26.744C29.7323 25.2933 30.159 23.736 30.159 22.072C30.159 20.408 29.7323 18.872 28.879 17.464C28.0683 16.056 26.9377 14.9467 25.487 14.136C24.079 13.2827 22.543 12.856 20.879 12.856H13.391V31.352H20.879ZM33.054 46.648V51H14.75V8.44H19.166V46.648H33.054Z" fill="white"/>
</svg>
